# xmcd
#
# Track frame offsets:
# 150
# 14380
# 27693
# 39628
# 52130
# 65947
# 77874
# 89893
# 103459
# 116018
# 133850
# 148185
# 161104
# 171535
#
# Disc length: 2499 seconds
#
#
# Revision: 0
# Processed by: cddbd v1.5.1PL2 Copyright (c) Steve Scherf et al.
# Submitted via: FreeRIP 2.945 
#
DISCID=e909c10e
DTITLE=Teodoro e Sampaio - O melhor de
DYEAR=2005
DGENRE=Sertaneja
TTITLE0=Se a casa cair
TTITLE1=Doidão por você
TTITLE2=Chorar por amor nunca maia
TTITLE3=Cantaram a minha vizinha
TTITLE4=Besta de paixão
TTITLE5=Aqui pra ela
TTITLE6=Mulher de peão
TTITLE7=Mulher chorona
TTITLE8=É mentira dela
TTITLE9=Paixão proibida
TTITLE10=A gostosona
TTITLE11=Vestido de seda
TTITLE12=Vou beber de novo
TTITLE13=Quando a saudade aperta
EXTD=
EXTT0=
EXTT1=
EXTT2=
EXTT3=
EXTT4=
EXTT5=
EXTT6=
EXTT7=
EXTT8=
EXTT9=
EXTT10=
EXTT11=
EXTT12=
EXTT13=
PLAYORDER=
